<svg xmlns="http://www.w3.org/2000/svg" width="1400" height="980" viewBox="0 0 1400 980">
  <defs>
    <linearGradient id="bg" x1="0" y1="0" x2="1" y2="1">
      <stop offset="0%" stop-color="#07132f"/>
      <stop offset="100%" stop-color="#0d2557"/>
    </linearGradient>
    <linearGradient id="box" x1="0" y1="0" x2="1" y2="0">
      <stop offset="0%" stop-color="#d6ddf2"/>
      <stop offset="100%" stop-color="#c4d0ee"/>
    </linearGradient>
    <marker id="arrow" markerWidth="12" markerHeight="12" refX="6" refY="6" orient="auto">
      <path d="M0,0 L12,6 L0,12 Z" fill="#7a8fc8"/>
    </marker>
    <style>
      .title { font: 700 44px 'Segoe UI', Arial, sans-serif; fill: #e9efff; }
      .subtitle { font: 500 24px 'Segoe UI', Arial, sans-serif; fill: #b8c8ef; }
      .label { font: 700 34px 'Segoe UI', Arial, sans-serif; fill: #1b294d; }
      .meta { font: 500 22px 'Segoe UI', Arial, sans-serif; fill: #8fa4d8; }
    </style>
  </defs>

  <rect x="0" y="0" width="1400" height="980" fill="url(#bg)"/>

  <g opacity="0.18">
    <circle cx="190" cy="160" r="120" fill="#7aa0ff"/>
    <circle cx="1160" cy="250" r="150" fill="#5c87ef"/>
    <circle cx="1030" cy="780" r="200" fill="#60b7ff"/>
  </g>

  <text x="700" y="84" text-anchor="middle" class="title">Mirai-Like Stage1 Execution Workflow</text>
  <text x="700" y="124" text-anchor="middle" class="subtitle">Sample-specific map for d40cf9...c28.elf</text>

  <g>
    <rect x="250" y="170" rx="16" ry="16" width="900" height="86" fill="url(#box)"/>
    <text x="700" y="225" text-anchor="middle" class="label">1) Stage1 Entry: main() @ 0x4002A0</text>

    <rect x="250" y="300" rx="16" ry="16" width="900" height="86" fill="url(#box)"/>
    <text x="700" y="355" text-anchor="middle" class="label">2) Connect + Peer Trust Gate (verify_server_ip @ 0x4001C0)</text>

    <rect x="250" y="430" rx="16" ry="16" width="900" height="86" fill="url(#box)"/>
    <text x="700" y="485" text-anchor="middle" class="label">3) Parse Command Line + Dispatch Method Handler</text>

    <rect x="250" y="560" rx="16" ry="16" width="900" height="86" fill="url(#box)"/>
    <text x="700" y="615" text-anchor="middle" class="label">4) Run Flood Methods (udp/syn/ack/udpslam/junk/raknet/udpburst)</text>

    <rect x="250" y="690" rx="16" ry="16" width="900" height="86" fill="url(#box)"/>
    <text x="700" y="745" text-anchor="middle" class="label">5) Concurrent Killer Loop (disable_infection_tools + scan_and_kill)</text>

    <line x1="700" y1="258" x2="700" y2="296" stroke="#7a8fc8" stroke-width="6" marker-end="url(#arrow)"/>
    <line x1="700" y1="388" x2="700" y2="426" stroke="#7a8fc8" stroke-width="6" marker-end="url(#arrow)"/>
    <line x1="700" y1="518" x2="700" y2="556" stroke="#7a8fc8" stroke-width="6" marker-end="url(#arrow)"/>
    <line x1="700" y1="648" x2="700" y2="686" stroke="#7a8fc8" stroke-width="6" marker-end="url(#arrow)"/>
  </g>

  <text x="700" y="916" text-anchor="middle" class="meta">Outputs: command dispatch map, IOC strings, disassembly slices, YARA, IDA annotations</text>
</svg>
