<svg xmlns="http://www.w3.org/2000/svg" viewBox="0 0 1800 1200" preserveAspectRatio="xMidYMid slice">
  <defs>
    <linearGradient id="bg" x1="0" y1="0" x2="1" y2="1">
      <stop offset="0%" stop-color="#020617"/>
      <stop offset="45%" stop-color="#0b1f4d"/>
      <stop offset="100%" stop-color="#0a1128"/>
    </linearGradient>
    <radialGradient id="glowA" cx="22%" cy="28%" r="42%">
      <stop offset="0%" stop-color="#3a6cff" stop-opacity="0.55"/>
      <stop offset="100%" stop-color="#3a6cff" stop-opacity="0"/>
    </radialGradient>
    <radialGradient id="glowB" cx="78%" cy="72%" r="38%">
      <stop offset="0%" stop-color="#73c3ff" stop-opacity="0.4"/>
      <stop offset="100%" stop-color="#73c3ff" stop-opacity="0"/>
    </radialGradient>
    <pattern id="grid" width="56" height="56" patternUnits="userSpaceOnUse">
      <path d="M56 0H0V56" fill="none" stroke="#94a3b8" stroke-opacity="0.1" stroke-width="1"/>
    </pattern>
  </defs>

  <rect width="1800" height="1200" fill="url(#bg)"/>
  <rect width="1800" height="1200" fill="url(#grid)"/>
  <rect width="1800" height="1200" fill="url(#glowA)"/>
  <rect width="1800" height="1200" fill="url(#glowB)"/>

  <g stroke="#7aa2ff" stroke-opacity="0.42" stroke-width="2" fill="none">
    <path d="M60 300H420L560 160H820L930 260H1280L1430 410H1730"/>
    <path d="M40 760H290L430 620H710L870 780H1180L1310 910H1760"/>
    <path d="M150 1050H560L740 900H1060L1200 1020H1620"/>
    <path d="M210 120H430L520 240H790L980 80H1330L1490 220H1710"/>
  </g>

  <g fill="#9dc0ff" fill-opacity="0.9">
    <circle cx="420" cy="300" r="5"/>
    <circle cx="820" cy="160" r="5"/>
    <circle cx="1280" cy="260" r="5"/>
    <circle cx="430" cy="620" r="5"/>
    <circle cx="870" cy="780" r="5"/>
    <circle cx="1310" cy="910" r="5"/>
    <circle cx="740" cy="900" r="5"/>
    <circle cx="1200" cy="1020" r="5"/>
    <circle cx="520" cy="240" r="5"/>
    <circle cx="980" cy="80" r="5"/>
    <circle cx="1490" cy="220" r="5"/>
  </g>

  <g fill="#c0dcff" fill-opacity="0.22">
    <circle cx="250" cy="170" r="160"/>
    <circle cx="1340" cy="880" r="210"/>
    <circle cx="980" cy="420" r="120"/>
  </g>
</svg>
