<svg xmlns="http://www.w3.org/2000/svg" width="1400" height="360" viewBox="0 0 1400 360">
<rect width="100%" height="100%" fill="#07142f"/>
<text x="70" y="42" fill="#dce9ff" font-family="monospace" font-size="24" font-weight="700">Binary Patch Genetics - Modified Byte Ranges</text>
<text x="70" y="68" fill="#9ec1ff" font-family="monospace" font-size="14">Source: patched_diff.json (4 patch blocks, total 0x2E800 bytes changed)</text>
<rect x="70" y="110" width="1260" height="22" rx="6" fill="#122b62" fill-opacity="0.55" stroke="#6c95ff" stroke-opacity="0.35"/>
<rect x="76" y="110" width="1105" height="22" rx="4" fill="#4f87ff" fill-opacity="0.9"/>
<rect x="1185" y="110" width="19" height="22" rx="4" fill="#68b6ff" fill-opacity="0.9"/>
<rect x="1260" y="110" width="3" height="22" rx="4" fill="#7be0ff" fill-opacity="0.9"/>
<rect x="1285" y="110" width="45" height="22" rx="4" fill="#9ec7ff" fill-opacity="0.9"/>
<rect x="70" y="164" width="18" height="18" fill="#4f87ff"/>
<text x="98" y="178" fill="#e7f0ff" font-family="monospace" font-size="14">Range 0: off 0x00000400..0x0002C200  size 0x2BE00  RVA 0x1000  section .text</text>
<rect x="70" y="202" width="18" height="18" fill="#68b6ff"/>
<text x="98" y="216" fill="#e7f0ff" font-family="monospace" font-size="14">Range 1: off 0x0002C400..0x0002D000  size 0xC00  RVA 0x2D000  section .text</text>
<rect x="70" y="240" width="18" height="18" fill="#7be0ff"/>
<text x="98" y="254" fill="#e7f0ff" font-family="monospace" font-size="14">Range 2: off 0x0002F400..0x0002F600  size 0x200  RVA 0x30000  section .text</text>
<rect x="70" y="278" width="18" height="18" fill="#9ec7ff"/>
<text x="98" y="292" fill="#e7f0ff" font-family="monospace" font-size="14">Range 3: off 0x00030400..0x00032000  size 0x1C00  RVA 0x31000  section .text</text>
<text x="70" y="154" fill="#9ec1ff" font-family="monospace" font-size="12">0x00000000</text>
<text x="1234" y="154" fill="#9ec1ff" font-family="monospace" font-size="12">0x00032000</text>
</svg>